<svg width="225" height="20" viewBox="0 0 225 20" fill="none" xmlns="http://www.w3.org/2000/svg">
<path d="M219.007 20H225L214.769 9.62485L224.595 0H219.111L212.078 6.90113L205.272 0H199.279L208.927 9.77335L198.747 20H204.156L211.622 12.501L219.011 20H219.007ZM175.847 20H187.4C190.547 20 193.163 17.4248 193.163 14.3259V0H188.694V13.6499C188.694 15.0254 187.551 16.1508 186.154 16.1508H177.089C175.692 16.1508 174.549 15.0254 174.549 13.6499V0H170.081V14.3259C170.081 17.4248 172.696 20 175.843 20M144.589 14.3259V0H149.058V13.6499C149.058 15.0254 150.201 16.1508 151.598 16.1508H164.751V20H150.356C147.209 20 144.593 17.4248 144.593 14.3259" fill="#EA555C"/>
<path d="M115.649 5.67409V14.3259C115.649 17.4248 118.265 20 121.412 20H137.481V16.1508H122.654C121.257 16.1508 120.114 15.0254 120.114 13.6499V11.8757H136.184V8.02657H120.114V6.35014C120.114 4.9746 121.257 3.84916 122.654 3.84916H137.481V0H121.412C118.265 0 115.649 2.57522 115.649 5.67409ZM110.569 0H86.4513V3.84916H96.2779V20H100.747V3.84916H110.573V0H110.569ZM62.8372 9.82415V3.84916H75.2792C76.6762 3.84916 77.8192 4.9746 77.8192 6.35014V7.32317C77.8192 8.69871 76.6762 9.82415 75.2792 9.82415H62.8372ZM82.2841 7.94842V5.67409C82.288 2.57522 79.6726 0 76.5254 0H58.3724V20H62.8412V13.6264H70.7866L77.5652 20H83.1493L76.3706 13.6264H76.5214C79.6687 13.6264 82.2841 11.0512 82.2841 7.95233M32.6469 10.6526V6.35404C32.6469 4.97851 33.7899 3.85307 35.1869 3.85307H44.2515C45.6485 3.85307 46.7915 4.97851 46.7915 6.35404V10.6526H32.6509H32.6469ZM45.4977 0H33.9447C30.7975 0 28.1821 2.57522 28.1821 5.67409V20H32.6509V14.5018H46.7915V20H51.2604V5.67409C51.2604 2.57522 48.645 0 45.4977 0ZM0 5.67409V14.3259C0 17.4248 2.61541 20 5.76262 20H21.8361V16.1508H7.00881C5.61181 16.1508 4.46881 15.0254 4.46881 13.6499V6.35014C4.46881 4.9746 5.61181 3.84916 7.00881 3.84916H21.8361V0H5.76262C2.61541 0 0 2.57522 0 5.67409Z" fill="white"/>
</svg>
